<mxfile host="65bd71144e">
    <diagram name="Page-1" id="9Ku4TH7VY7PE_OckHPOF">
        <mxGraphModel dx="1498" dy="636" grid="1" gridSize="10" guides="1" tooltips="1" connect="1" arrows="1" fold="1" page="1" pageScale="1" pageWidth="850" pageHeight="1100" math="0" shadow="0">
            <root>
                <mxCell id="0"/>
                <mxCell id="1" parent="0"/>
                <mxCell id="qVFf10OG-uWUHC9CuWu2-1" value="" style="rounded=1;whiteSpace=wrap;html=1;arcSize=6;" parent="1" vertex="1">
                    <mxGeometry x="110" y="200" width="130" height="160" as="geometry"/>
                </mxCell>
                <mxCell id="qVFf10OG-uWUHC9CuWu2-2" value="" style="rounded=0;whiteSpace=wrap;html=1;" parent="1" vertex="1">
                    <mxGeometry x="190" y="220" width="30" height="30" as="geometry"/>
                </mxCell>
                <mxCell id="qVFf10OG-uWUHC9CuWu2-3" value="2" style="rounded=0;whiteSpace=wrap;html=1;" parent="1" vertex="1">
                    <mxGeometry x="190" y="265" width="30" height="30" as="geometry"/>
                </mxCell>
                <mxCell id="qVFf10OG-uWUHC9CuWu2-4" value="8" style="rounded=0;whiteSpace=wrap;html=1;" parent="1" vertex="1">
                    <mxGeometry x="190" y="310" width="30" height="30" as="geometry"/>
                </mxCell>
                <mxCell id="qVFf10OG-uWUHC9CuWu2-5" value="s" style="text;html=1;align=center;verticalAlign=middle;whiteSpace=wrap;rounded=0;" parent="1" vertex="1">
                    <mxGeometry x="120" y="220" width="60" height="30" as="geometry"/>
                </mxCell>
                <mxCell id="qVFf10OG-uWUHC9CuWu2-6" value="length" style="text;html=1;align=center;verticalAlign=middle;whiteSpace=wrap;rounded=0;" parent="1" vertex="1">
                    <mxGeometry x="120" y="265" width="60" height="30" as="geometry"/>
                </mxCell>
                <mxCell id="qVFf10OG-uWUHC9CuWu2-7" value="capacity" style="text;html=1;align=center;verticalAlign=middle;whiteSpace=wrap;rounded=0;" parent="1" vertex="1">
                    <mxGeometry x="120" y="310" width="60" height="30" as="geometry"/>
                </mxCell>
                <mxCell id="qVFf10OG-uWUHC9CuWu2-8" value="&lt;div&gt;&lt;br&gt;&lt;/div&gt;&lt;div&gt;&lt;br&gt;&lt;/div&gt;" style="html=1;verticalAlign=bottom;startArrow=oval;startFill=1;endArrow=block;startSize=8;curved=0;rounded=0;" parent="1" edge="1">
                    <mxGeometry x="-1" y="-5" width="60" relative="1" as="geometry">
                        <mxPoint x="205" y="235.19461538461542" as="sourcePoint"/>
                        <mxPoint x="300" y="235" as="targetPoint"/>
                        <mxPoint as="offset"/>
                    </mxGeometry>
                </mxCell>
                <mxCell id="qVFf10OG-uWUHC9CuWu2-9" value="" style="shape=table;startSize=0;container=1;collapsible=0;childLayout=tableLayout;fontSize=16;" parent="1" vertex="1">
                    <mxGeometry x="300" y="220" width="240" height="30" as="geometry"/>
                </mxCell>
                <mxCell id="qVFf10OG-uWUHC9CuWu2-10" value="" style="shape=tableRow;horizontal=0;startSize=0;swimlaneHead=0;swimlaneBody=0;strokeColor=inherit;top=0;left=0;bottom=0;right=0;collapsible=0;dropTarget=0;fillColor=none;points=[[0,0.5],[1,0.5]];portConstraint=eastwest;fontSize=16;" parent="qVFf10OG-uWUHC9CuWu2-9" vertex="1">
                    <mxGeometry width="240" height="30" as="geometry"/>
                </mxCell>
                <mxCell id="qVFf10OG-uWUHC9CuWu2-11" value="&#39;a&#39;" style="shape=partialRectangle;html=1;whiteSpace=wrap;connectable=0;strokeColor=inherit;overflow=hidden;fillColor=none;top=0;left=0;bottom=0;right=0;pointerEvents=1;fontSize=16;" parent="qVFf10OG-uWUHC9CuWu2-10" vertex="1">
                    <mxGeometry width="30" height="30" as="geometry">
                        <mxRectangle width="30" height="30" as="alternateBounds"/>
                    </mxGeometry>
                </mxCell>
                <mxCell id="qVFf10OG-uWUHC9CuWu2-12" value="&#39;z&#39;" style="shape=partialRectangle;html=1;whiteSpace=wrap;connectable=0;strokeColor=inherit;overflow=hidden;fillColor=none;top=0;left=0;bottom=0;right=0;pointerEvents=1;fontSize=16;" parent="qVFf10OG-uWUHC9CuWu2-10" vertex="1">
                    <mxGeometry x="30" width="30" height="30" as="geometry">
                        <mxRectangle width="30" height="30" as="alternateBounds"/>
                    </mxGeometry>
                </mxCell>
                <mxCell id="qVFf10OG-uWUHC9CuWu2-13" value="&#39;\0&#39;" style="shape=partialRectangle;html=1;whiteSpace=wrap;connectable=0;strokeColor=inherit;overflow=hidden;fillColor=none;top=0;left=0;bottom=0;right=0;pointerEvents=1;fontSize=16;" parent="qVFf10OG-uWUHC9CuWu2-10" vertex="1">
                    <mxGeometry x="60" width="30" height="30" as="geometry">
                        <mxRectangle width="30" height="30" as="alternateBounds"/>
                    </mxGeometry>
                </mxCell>
                <mxCell id="qVFf10OG-uWUHC9CuWu2-26" style="shape=partialRectangle;html=1;whiteSpace=wrap;connectable=0;strokeColor=inherit;overflow=hidden;fillColor=none;top=0;left=0;bottom=0;right=0;pointerEvents=1;fontSize=16;" parent="qVFf10OG-uWUHC9CuWu2-10" vertex="1">
                    <mxGeometry x="90" width="30" height="30" as="geometry">
                        <mxRectangle width="30" height="30" as="alternateBounds"/>
                    </mxGeometry>
                </mxCell>
                <mxCell id="qVFf10OG-uWUHC9CuWu2-25" style="shape=partialRectangle;html=1;whiteSpace=wrap;connectable=0;strokeColor=inherit;overflow=hidden;fillColor=none;top=0;left=0;bottom=0;right=0;pointerEvents=1;fontSize=16;" parent="qVFf10OG-uWUHC9CuWu2-10" vertex="1">
                    <mxGeometry x="120" width="30" height="30" as="geometry">
                        <mxRectangle width="30" height="30" as="alternateBounds"/>
                    </mxGeometry>
                </mxCell>
                <mxCell id="qVFf10OG-uWUHC9CuWu2-24" style="shape=partialRectangle;html=1;whiteSpace=wrap;connectable=0;strokeColor=inherit;overflow=hidden;fillColor=none;top=0;left=0;bottom=0;right=0;pointerEvents=1;fontSize=16;" parent="qVFf10OG-uWUHC9CuWu2-10" vertex="1">
                    <mxGeometry x="150" width="30" height="30" as="geometry">
                        <mxRectangle width="30" height="30" as="alternateBounds"/>
                    </mxGeometry>
                </mxCell>
                <mxCell id="qVFf10OG-uWUHC9CuWu2-23" style="shape=partialRectangle;html=1;whiteSpace=wrap;connectable=0;strokeColor=inherit;overflow=hidden;fillColor=none;top=0;left=0;bottom=0;right=0;pointerEvents=1;fontSize=16;" parent="qVFf10OG-uWUHC9CuWu2-10" vertex="1">
                    <mxGeometry x="180" width="30" height="30" as="geometry">
                        <mxRectangle width="30" height="30" as="alternateBounds"/>
                    </mxGeometry>
                </mxCell>
                <mxCell id="qVFf10OG-uWUHC9CuWu2-27" style="shape=partialRectangle;html=1;whiteSpace=wrap;connectable=0;strokeColor=inherit;overflow=hidden;fillColor=none;top=0;left=0;bottom=0;right=0;pointerEvents=1;fontSize=16;" parent="qVFf10OG-uWUHC9CuWu2-10" vertex="1">
                    <mxGeometry x="210" width="30" height="30" as="geometry">
                        <mxRectangle width="30" height="30" as="alternateBounds"/>
                    </mxGeometry>
                </mxCell>
                <mxCell id="qVFf10OG-uWUHC9CuWu2-28" value="" style="endArrow=block;startArrow=block;endFill=1;startFill=1;html=1;rounded=0;labelPosition=center;verticalLabelPosition=top;align=center;verticalAlign=top;spacingTop=5;" parent="1" edge="1">
                    <mxGeometry width="160" relative="1" as="geometry">
                        <mxPoint x="300" y="209.99999999999997" as="sourcePoint"/>
                        <mxPoint x="390" y="210" as="targetPoint"/>
                    </mxGeometry>
                </mxCell>
                <mxCell id="qVFf10OG-uWUHC9CuWu2-29" value="size" style="edgeLabel;html=1;align=center;verticalAlign=middle;resizable=0;points=[];" parent="qVFf10OG-uWUHC9CuWu2-28" vertex="1" connectable="0">
                    <mxGeometry relative="1" as="geometry">
                        <mxPoint y="-8" as="offset"/>
                    </mxGeometry>
                </mxCell>
                <mxCell id="qVFf10OG-uWUHC9CuWu2-30" value="" style="endArrow=block;startArrow=block;endFill=1;startFill=1;html=1;rounded=0;labelPosition=center;verticalLabelPosition=top;align=center;verticalAlign=top;spacingTop=5;" parent="1" edge="1">
                    <mxGeometry width="160" relative="1" as="geometry">
                        <mxPoint x="300" y="260" as="sourcePoint"/>
                        <mxPoint x="540" y="260" as="targetPoint"/>
                    </mxGeometry>
                </mxCell>
                <mxCell id="qVFf10OG-uWUHC9CuWu2-31" value="capacity" style="edgeLabel;html=1;align=center;verticalAlign=middle;resizable=0;points=[];" parent="qVFf10OG-uWUHC9CuWu2-30" vertex="1" connectable="0">
                    <mxGeometry relative="1" as="geometry">
                        <mxPoint y="8" as="offset"/>
                    </mxGeometry>
                </mxCell>
            </root>
        </mxGraphModel>
    </diagram>
</mxfile>